<svg width="720" height="860" viewBox="0 0 720 860" fill="none" xmlns="http://www.w3.org/2000/svg">
<g opacity="0.05">
<path d="M104.203 859.442C102.519 859.442 103.501 765.413 104.203 718.399C56.8378 718.399 0 674.192 0 640.51V206.857C-0.000256972 154.229 43.1546 123.705 77.8892 123.705H525.226C582.064 123.705 598.905 171.07 598.905 194.226V241.591C598.905 212.119 559.96 171.07 530.489 171.07H183.145C150.516 171.07 111.571 208.962 111.571 241.591V606.828C111.571 616.301 132.622 668.929 175.777 668.929H532.594C561.013 668.929 601.01 633.142 601.01 606.828V639.457C601.01 668.929 563.118 718.399 524.173 718.399H301.031C236.124 765.413 105.887 859.442 104.203 859.442Z" fill="#25A8E0"/>
<path d="M657.054 620.511C658.41 620.511 657.619 540.876 657.054 501.059C695.211 501.059 741 463.619 741 435.093V67.8211C741 23.2493 706.234 -2.60229 678.252 -2.60229H317.876C272.087 -2.60229 258.52 37.5123 258.52 57.1239V97.2385C258.52 72.2783 289.894 37.5123 313.636 37.5123H593.458C619.744 37.5123 651.118 69.604 651.118 97.2385V406.567C651.118 414.59 634.159 459.161 599.393 459.161H311.94C289.046 459.161 256.824 428.853 256.824 406.567V434.201C256.824 459.161 287.35 501.059 318.724 501.059H498.488C550.778 540.876 655.697 620.511 657.054 620.511Z" fill="#25A8E0"/>
</g>
</svg>
