<svg width="1263" height="416" viewBox="0 0 1263 416" fill="none" xmlns="http://www.w3.org/2000/svg">
<path d="M17 2C26.1099 57.1799 34.5417 128.246 101.617 136.995C113.979 138.608 135.575 136.516 144.625 126.173C148.367 121.896 154.461 112.474 148.543 107.794C137.682 99.2067 122.593 101.643 110.666 106.488C95.4483 112.671 91.9241 124.609 92.6607 140.447C93.578 160.168 108.291 175.316 117.757 191.665C128.44 210.118 135.287 223.26 158.246 226.277C179.502 229.069 202.32 227.885 223.738 228.702C252.172 229.788 268.878 249.114 284.005 270.964C296.762 289.391 305.347 307.18 325.987 318.264C351.284 331.849 384.451 329.628 409.951 317.331C428.915 308.184 459.832 282.562 483.092 286.171C504.598 289.508 517.56 313.561 530.299 328.899C549.488 352.005 570.972 368.108 600.268 376.479C623.028 382.981 646.105 383.187 669.492 380.77C709.043 376.682 751.483 370.228 787.414 352.129C796.047 347.781 846.938 325.533 835.647 311.733C823.473 296.854 801.708 302.477 786.108 307.628C775.451 311.147 755.591 320.145 761.666 334.87C770.667 356.691 792.432 373.552 814.469 380.49C835.369 387.07 861.771 392.202 882.014 380.957C910.28 365.253 915.502 322.524 926.794 295.127C938.226 267.392 948.073 263.778 977.359 263.967C1033.9 264.332 1097.04 262.466 1141.09 220.213C1167.46 194.916 1154.15 177.392 1128.77 161.531C1118.49 155.105 1105.12 147.443 1107.22 132.984C1110.45 110.81 1125.71 104.86 1146.59 102.197C1169 99.3381 1192.98 103.174 1214.88 107.794C1226.13 110.166 1254.05 114.971 1256.68 129.998C1262.69 164.347 1173.78 188.934 1211.71 121.415C1232.1 85.1113 1273.22 47.6914 1257.98 2" stroke="#BF3A91" stroke-width="3" stroke-linecap="round" stroke-linejoin="round" stroke-dasharray="8 8"/>
<circle cx="44" cy="80" r="44" fill="#D2EFF3"/>
<mask id="mask0" mask-type="alpha" maskUnits="userSpaceOnUse" x="0" y="36" width="88" height="88">
<circle cx="44" cy="80" r="44" fill="#FFEDEF"/>
</mask>
<g mask="url(#mask0)">
<g clip-path="url(#clip0)">
<path d="M56.5051 119.947C53.1704 115.316 50.5612 106.361 50.2525 101.884L34.3893 95.0526L27.7893 119.947H56.5051Z" fill="#AC6651" stroke="black"/>
<mask id="mask1" mask-type="alpha" maskUnits="userSpaceOnUse" x="27" y="95" width="30" height="28">
<path d="M56.5051 122.263C53.1704 117.632 50.5612 106.361 50.2525 101.884L34.3893 95.0526L27.7893 122.263H56.5051Z" fill="#AC6651"/>
</mask>
<g mask="url(#mask1)">
<g style="mix-blend-mode:multiply">
<ellipse cx="49.5577" cy="94.5895" rx="13.6632" ry="12.5053" fill="black"/>
</g>
</g>
<mask id="path-7-inside-1" fill="white">
<path fill-rule="evenodd" clip-rule="evenodd" d="M63.4267 80.9091C63.4203 80.8817 63.4138 80.8542 63.4072 80.8268C63.4006 80.7993 63.394 80.7719 63.3873 80.7446L59.5901 64.896C59.5866 64.8809 59.583 64.8658 59.5794 64.8508C59.5757 64.8357 59.5721 64.8206 59.5685 64.8055L59.5512 64.7334L59.5508 64.7335C57.1846 55.1357 47.51 49.2343 37.8823 51.541C28.2545 53.8477 22.3047 63.4927 24.5448 73.1206L24.5443 73.1207L28.4791 89.5438L28.4824 89.5431C30.9378 99.0157 40.5407 104.814 50.0974 102.524C59.6542 100.234 65.5871 90.714 63.4832 81.1572L63.486 81.1565L63.4267 80.9091Z"/>
</mask>
<path fill-rule="evenodd" clip-rule="evenodd" d="M63.4267 80.9091C63.4203 80.8817 63.4138 80.8542 63.4072 80.8268C63.4006 80.7993 63.394 80.7719 63.3873 80.7446L59.5901 64.896C59.5866 64.8809 59.583 64.8658 59.5794 64.8508C59.5757 64.8357 59.5721 64.8206 59.5685 64.8055L59.5512 64.7334L59.5508 64.7335C57.1846 55.1357 47.51 49.2343 37.8823 51.541C28.2545 53.8477 22.3047 63.4927 24.5448 73.1206L24.5443 73.1207L28.4791 89.5438L28.4824 89.5431C30.9378 99.0157 40.5407 104.814 50.0974 102.524C59.6542 100.234 65.5871 90.714 63.4832 81.1572L63.486 81.1565L63.4267 80.9091Z" fill="#AC6651"/>
<path d="M63.4267 80.9091L62.4532 81.1376L62.4543 81.1421L63.4267 80.9091ZM63.4072 80.8268L64.3797 80.5938L64.3797 80.5938L63.4072 80.8268ZM63.3873 80.7446L62.4148 80.9776L62.4159 80.982L63.3873 80.7446ZM59.5901 64.896L58.6171 65.1266L58.6177 65.129L59.5901 64.896ZM59.5794 64.8508L58.6069 65.0837L58.6069 65.0839L59.5794 64.8508ZM59.5685 64.8055L58.596 65.0385L58.5966 65.041L59.5685 64.8055ZM59.5512 64.7334L60.5237 64.5004L60.2909 63.529L59.3193 63.7607L59.5512 64.7334ZM59.5508 64.7335L58.5799 64.9729L58.8175 65.9363L59.7827 65.7062L59.5508 64.7335ZM37.8823 51.541L38.1153 52.5135L37.8823 51.541ZM24.5448 73.1206L24.778 74.0931L25.7438 73.8614L25.5187 72.894L24.5448 73.1206ZM24.5443 73.1207L24.3111 72.1483L23.3389 72.3815L23.5718 73.3537L24.5443 73.1207ZM28.4791 89.5438L27.5067 89.7768L27.7395 90.7488L28.7117 90.5164L28.4791 89.5438ZM28.4824 89.5431L29.4504 89.2921L29.2042 88.3423L28.2498 88.5705L28.4824 89.5431ZM63.4832 81.1572L63.2504 80.1846L62.2954 80.4132L62.5065 81.3722L63.4832 81.1572ZM63.486 81.1565L63.7187 82.129L64.6915 81.8962L64.4585 80.9235L63.486 81.1565ZM64.4003 80.6806C64.3935 80.6516 64.3866 80.6227 64.3797 80.5938L62.4347 81.0597C62.4409 81.0857 62.4471 81.1117 62.4532 81.1376L64.4003 80.6806ZM64.3797 80.5938C64.3727 80.5648 64.3658 80.536 64.3587 80.5071L62.4159 80.982C62.4222 81.0079 62.4285 81.0339 62.4347 81.0598L64.3797 80.5938ZM58.6177 65.129L62.4148 80.9776L64.3598 80.5116L60.5626 64.663L58.6177 65.129ZM60.5632 64.6655C60.5594 64.6496 60.5557 64.6337 60.5518 64.6177L58.6069 65.0839C58.6103 65.098 58.6137 65.1122 58.6171 65.1266L60.5632 64.6655ZM60.5519 64.6179C60.548 64.6018 60.5442 64.5858 60.5403 64.5701L58.5966 65.041C58.6001 65.0554 58.6035 65.0696 58.6069 65.0837L60.5519 64.6179ZM58.5787 64.9664L58.596 65.0385L60.5409 64.5726L60.5237 64.5004L58.5787 64.9664ZM59.7827 65.7062L59.7831 65.7061L59.3193 63.7607L59.319 63.7607L59.7827 65.7062ZM60.5218 64.4941C58.024 54.363 47.8119 48.1336 37.6493 50.5685L38.1153 52.5135C47.208 50.3349 56.3451 55.9085 58.5799 64.9729L60.5218 64.4941ZM37.6493 50.5685C27.4866 53.0034 21.2062 63.1842 23.5708 73.3472L25.5187 72.894C23.4032 63.8011 29.0225 54.692 38.1153 52.5135L37.6493 50.5685ZM24.7776 74.0932L24.778 74.0931L24.3115 72.1482L24.3111 72.1483L24.7776 74.0932ZM29.4516 89.3108L25.5168 72.8877L23.5718 73.3537L27.5067 89.7768L29.4516 89.3108ZM28.2498 88.5705L28.2466 88.5712L28.7117 90.5164L28.7149 90.5157L28.2498 88.5705ZM27.5143 89.794C30.1063 99.7933 40.2426 105.913 50.3304 103.496L49.8644 101.551C40.8388 103.714 31.7693 98.2381 29.4504 89.2921L27.5143 89.794ZM50.3304 103.496C60.4183 101.079 66.6806 91.0304 64.4598 80.9422L62.5065 81.3722C64.4935 90.3977 58.8901 99.3889 49.8644 101.551L50.3304 103.496ZM63.2533 80.184L63.2504 80.1846L63.7159 82.1297L63.7187 82.129L63.2533 80.184ZM62.4543 81.1421L62.5135 81.3895L64.4585 80.9235L64.3992 80.6761L62.4543 81.1421Z" fill="black" mask="url(#path-7-inside-1)"/>
</g>
<path d="M56.5388 87.1673C56.5977 86.0694 55.4764 85.5116 54.5998 85.8355C53.1691 86.364 50.8079 87.1624 49.0346 87.4063C47.0572 87.6784 44.2629 87.4739 42.6273 87.3067C41.6994 87.2118 40.7575 88.0268 41.0796 89.0723C41.2478 89.6184 41.475 90.146 41.7582 90.6455C42.2706 91.5491 42.956 92.343 43.7752 92.9819C44.5944 93.6207 45.5313 94.0919 46.5326 94.3686C47.5339 94.6452 48.5799 94.722 49.6109 94.5945C50.6419 94.4669 51.6376 94.1375 52.5413 93.6252C53.445 93.1128 54.2389 92.4274 54.8777 91.6082C55.5165 90.789 55.9877 89.852 56.2644 88.8507C56.4166 88.2998 56.5083 87.7353 56.5388 87.1673Z" fill="black" stroke="black"/>
<mask id="mask2" mask-type="alpha" maskUnits="userSpaceOnUse" x="41" y="85" width="16" height="10">
<path d="M55.9941 85.8339C56.1136 86.7997 56.0417 87.7796 55.7824 88.7176C55.5232 89.6556 55.0818 90.5334 54.4834 91.3008C53.885 92.0682 53.1412 92.7102 52.2947 93.1902C51.4481 93.6702 50.5153 93.9787 49.5495 94.0982C48.5837 94.2177 47.6038 94.1458 46.6658 93.8866C45.7278 93.6274 44.85 93.186 44.0826 92.5876C43.3152 91.9891 42.6732 91.2454 42.1932 90.3989C41.7132 89.5523 41.4046 88.6195 41.2852 87.6537L55.9941 85.8339Z" fill="#171921"/>
</mask>
<g mask="url(#mask2)">
<ellipse cx="49.6786" cy="95.1253" rx="4.97895" ry="4.97895" transform="rotate(-7.05286 49.6786 95.1253)" fill="#FC909F"/>
</g>
<path d="M50.7156 66.6181C52.0279 66.0006 55.1156 65.4371 56.9682 68.1234" stroke="black" stroke-linecap="round"/>
<path d="M33.2497 72.4786C33.7292 71.1098 35.4919 68.5128 38.7063 69.0747" stroke="black" stroke-linecap="round"/>
<path d="M67.6622 53.6919C63.4937 68.0498 42.8446 67.0077 33.0411 64.6919C34.6158 77.1972 28.9113 79.0884 25.8622 78.4708L28.9885 88.6603C27.2516 88.8919 23.5464 90.9761 16.8306 74.4182C11.4579 61.1719 19.5323 52.7656 24.2411 50.2182C38.6735 42.41 71.8306 39.334 67.6622 53.6919Z" fill="#171921"/>
<path d="M61.2526 73.0976L58.4736 61.866L62.642 59.666C64.6799 68.3734 62.5649 72.2485 61.2526 73.0976Z" fill="#171921"/>
<ellipse cx="39.0279" cy="74.9987" rx="2.08421" ry="3.12632" transform="rotate(-6.77645 39.0279 74.9987)" fill="black"/>
<ellipse cx="53.849" cy="72.6829" rx="2.08421" ry="3.12631" transform="rotate(-6.27568 53.849 72.6829)" fill="black"/>
<path d="M46.38 77.4356C47.5889 76.9756 49.6971 77.1145 49.5673 79.4533C49.452 81.5319 47.3194 81.9446 46.64 81.4599" stroke="black"/>
<path d="M28.8315 77.7249C28.2919 77.5472 27.7095 77.4526 27.1132 77.4526C24.6832 77.4526 22.7132 78.9579 22.9448 81.7368C23.186 84.6316 24.9147 85.6737 27.3448 85.6737C27.6152 85.6737 27.8799 85.6499 28.1368 85.6045C28.4171 85.5549 28.6882 85.4794 28.9473 85.3807" stroke="black"/>
<path d="M29.0631 85.3347C28.5352 85.553 27.9545 85.6737 27.3448 85.6737C24.9147 85.6737 23.186 84.6316 22.9448 81.7368C22.7132 78.9579 24.6832 77.4526 27.1132 77.4526C27.8398 77.4526 28.5459 77.5931 29.1789 77.8532L29.0631 85.3347Z" fill="#AC6651"/>
<path d="M28.1367 79.4211C27.2103 78.9965 25.1724 78.7727 24.4314 81.2737" stroke="black"/>
<path d="M25.7051 79.5367C26.2068 79.9613 27.164 81.2736 26.9788 83.1262" stroke="black"/>
<path d="M53.1512 112.561L53.1862 112.569L53.222 112.572C63.8595 113.449 70.2492 118.162 74.889 124.658H11.7283C15.4963 117.903 20.8511 113.603 29.5216 111.626C33.2266 110.781 37.5438 110.36 42.6104 110.36C44.796 110.36 46.4966 110.693 48.1114 111.133C48.7082 111.296 49.3095 111.479 49.9251 111.666C50.9458 111.976 52.0061 112.298 53.1512 112.561Z" fill="#9287FF" stroke="black"/>
<path d="M27.1766 111.386L28.6699 108.189C28.8886 107.721 29.4276 107.498 29.9173 107.663C38.2381 110.463 45.8454 110.283 52.9182 108.403C53.3219 108.296 53.7518 108.443 53.9984 108.78L56.3314 111.971C56.7143 112.495 56.5075 113.237 55.8926 113.443C48.1846 116.034 35.0319 115.557 27.6801 112.695C27.1603 112.493 26.9406 111.892 27.1766 111.386Z" fill="#E0DDFF" stroke="black"/>
</g>
<circle cx="264" cy="246" r="44" fill="#E0DDFF"/>
<mask id="mask3" mask-type="alpha" maskUnits="userSpaceOnUse" x="220" y="202" width="88" height="88">
<circle cx="264" cy="246" r="44" fill="#FFEDEF"/>
</mask>
<g mask="url(#mask3)">
<g clip-path="url(#clip1)">
<path d="M276.505 285.947C273.17 281.316 270.561 272.361 270.252 267.884L254.389 261.053L247.789 285.947H276.505Z" fill="#F9C9B6" stroke="black"/>
<mask id="mask4" mask-type="alpha" maskUnits="userSpaceOnUse" x="247" y="261" width="30" height="28">
<path d="M276.505 288.263C273.17 283.632 270.561 272.361 270.252 267.884L254.389 261.053L247.789 288.263H276.505Z" fill="#AC6651"/>
</mask>
<g mask="url(#mask4)">
<g style="mix-blend-mode:multiply">
<ellipse cx="269.558" cy="260.59" rx="13.6632" ry="12.5053" fill="black"/>
</g>
</g>
<mask id="path-30-inside-2" fill="white">
<path fill-rule="evenodd" clip-rule="evenodd" d="M283.426 246.905C283.42 246.879 283.413 246.853 283.407 246.827C283.401 246.801 283.395 246.775 283.388 246.749L279.591 230.9C279.587 230.883 279.583 230.867 279.579 230.851C279.575 230.834 279.572 230.818 279.568 230.802L279.551 230.733L279.551 230.733C277.185 221.136 267.51 215.234 257.882 217.541C248.255 219.848 242.305 229.493 244.545 239.121L244.544 239.121L248.479 255.544L248.482 255.543C250.938 265.016 260.541 270.814 270.097 268.524C279.654 266.234 285.587 256.714 283.483 247.157L283.486 247.156L283.426 246.905Z"/>
</mask>
<path fill-rule="evenodd" clip-rule="evenodd" d="M283.426 246.905C283.42 246.879 283.413 246.853 283.407 246.827C283.401 246.801 283.395 246.775 283.388 246.749L279.591 230.9C279.587 230.883 279.583 230.867 279.579 230.851C279.575 230.834 279.572 230.818 279.568 230.802L279.551 230.733L279.551 230.733C277.185 221.136 267.51 215.234 257.882 217.541C248.255 219.848 242.305 229.493 244.545 239.121L244.544 239.121L248.479 255.544L248.482 255.543C250.938 265.016 260.541 270.814 270.097 268.524C279.654 266.234 285.587 256.714 283.483 247.157L283.486 247.156L283.426 246.905Z" fill="#F9C9B6"/>
<path d="M283.426 246.905L282.452 247.134L282.453 247.138L283.426 246.905ZM283.407 246.827L282.435 247.06L282.435 247.06L283.407 246.827ZM283.388 246.749L282.416 246.982L282.417 246.986L283.388 246.749ZM279.591 230.9L278.618 231.13L278.619 231.133L279.591 230.9ZM279.579 230.851L280.552 230.618L280.552 230.618L279.579 230.851ZM279.568 230.802L278.595 231.035L278.596 231.038L279.568 230.802ZM279.551 230.733L280.524 230.5L280.29 229.527L279.317 229.761L279.551 230.733ZM279.551 230.733L278.58 230.973L278.818 231.939L279.785 231.706L279.551 230.733ZM257.882 217.541L258.115 218.513L257.882 217.541ZM244.545 239.121L244.778 240.093L245.744 239.861L245.519 238.894L244.545 239.121ZM244.544 239.121L244.311 238.148L243.339 238.382L243.572 239.354L244.544 239.121ZM248.479 255.544L247.507 255.777L247.74 256.749L248.712 256.516L248.479 255.544ZM248.482 255.543L249.45 255.292L249.204 254.342L248.249 254.571L248.482 255.543ZM270.097 268.524L269.864 267.551L270.097 268.524ZM283.483 247.157L283.25 246.185L282.295 246.414L282.507 247.372L283.483 247.157ZM283.486 247.156L283.719 248.129L284.691 247.896L284.458 246.923L283.486 247.156ZM284.399 246.676C284.393 246.649 284.386 246.621 284.38 246.594L282.435 247.06C282.441 247.084 282.446 247.109 282.452 247.134L284.399 246.676ZM284.38 246.594C284.373 246.566 284.366 246.539 284.36 246.511L282.417 246.986C282.423 247.011 282.429 247.035 282.435 247.06L284.38 246.594ZM278.619 231.133L282.416 246.982L284.361 246.516L280.564 230.667L278.619 231.133ZM280.564 230.669C280.56 230.652 280.556 230.635 280.552 230.618L278.607 231.084C278.611 231.099 278.614 231.115 278.618 231.13L280.564 230.669ZM280.552 230.618C280.548 230.601 280.544 230.583 280.539 230.566L278.596 231.038C278.599 231.053 278.603 231.068 278.607 231.084L280.552 230.618ZM278.579 230.966L278.595 231.035L280.54 230.569L280.524 230.5L278.579 230.966ZM279.785 231.706L279.785 231.706L279.317 229.761L279.317 229.761L279.785 231.706ZM280.522 230.494C278.024 220.363 267.812 214.134 257.649 216.569L258.115 218.513C267.208 216.335 276.345 221.909 278.58 230.973L280.522 230.494ZM257.649 216.569C247.487 219.003 241.206 229.184 243.571 239.347L245.519 238.894C243.403 229.801 249.022 220.692 258.115 218.513L257.649 216.569ZM244.778 240.093L244.778 240.093L244.311 238.148L244.311 238.148L244.778 240.093ZM249.452 255.311L245.517 238.888L243.572 239.354L247.507 255.777L249.452 255.311ZM248.249 254.571L248.246 254.571L248.712 256.516L248.715 256.516L248.249 254.571ZM247.514 255.794C250.106 265.793 260.243 271.913 270.33 269.496L269.864 267.551C260.839 269.714 251.769 264.238 249.45 255.292L247.514 255.794ZM270.33 269.496C280.418 267.079 286.681 257.03 284.46 246.942L282.507 247.372C284.493 256.398 278.89 265.389 269.864 267.551L270.33 269.496ZM283.253 246.184L283.25 246.185L283.716 248.13L283.719 248.129L283.253 246.184ZM282.453 247.138L282.514 247.389L284.458 246.923L284.398 246.672L282.453 247.138Z" fill="black" mask="url(#path-30-inside-2)"/>
</g>
<path d="M261.568 253.063C262.147 257 268.747 258.853 274.768 254.337" stroke="black"/>
<path d="M270.716 232.618C272.028 232.001 275.116 231.437 276.968 234.123" stroke="black" stroke-width="4" stroke-linecap="round"/>
<path d="M253.25 238.479C253.729 237.11 255.492 234.513 258.707 235.075" stroke="black" stroke-width="4" stroke-linecap="round"/>
<path d="M253.828 237.075L252.404 235.818" stroke="black" stroke-width="4" stroke-linecap="round"/>
<path d="M276.265 232.836L277.688 231.58" stroke="black" stroke-width="4" stroke-linecap="round"/>
<path d="M255.321 235.768L254.384 234.116" stroke="black" stroke-width="4" stroke-linecap="round"/>
<path d="M274.539 231.993L275.477 230.341" stroke="black" stroke-width="4" stroke-linecap="round"/>
<path d="M257.191 234.931L256.682 233.101" stroke="black" stroke-width="4" stroke-linecap="round"/>
<path d="M272.438 231.851L272.948 230.021" stroke="black" stroke-width="4" stroke-linecap="round"/>
<path d="M258.173 229.748C257.387 228.006 257.386 228.006 257.386 228.006L257.384 228.007L257.381 228.009L257.372 228.013L257.344 228.026C257.321 228.036 257.29 228.051 257.251 228.069C257.174 228.106 257.067 228.158 256.933 228.226C256.665 228.362 256.291 228.56 255.845 228.82C254.956 229.337 253.761 230.108 252.549 231.125C250.181 233.111 247.436 236.301 247.269 240.6C247.208 242.189 247.008 249.873 247.053 252.838C247.097 255.75 248.579 258.694 250.412 261.222C251.303 262.45 252.318 263.637 253.383 264.741C246.553 264.695 241.274 263.719 237.561 262.677C235.861 262.2 234.487 261.709 233.441 261.285C235.047 259.501 236.333 257.063 237.24 253.982C238.576 249.442 239.139 243.359 238.637 235.477C238.226 229.009 241.352 223.481 246.252 219.495C251.175 215.491 257.753 213.174 263.823 213.174C267.107 213.174 269.581 213.817 271.515 215.221C273.452 216.629 275.091 218.976 276.35 222.862L276.745 224.082L278.024 224.179C280.479 224.365 282.116 225.344 283.347 226.913C284.647 228.569 285.566 230.977 286.266 234.101C286.653 235.829 286.293 237.58 285.727 240.031C285.715 240.085 285.702 240.139 285.69 240.193C285.153 242.515 284.506 245.316 284.791 248.597C285.052 251.604 286.241 254.492 287.153 256.566C287.281 256.858 287.401 257.128 287.513 257.379C287.707 257.815 287.875 258.193 288.014 258.525C287.982 258.529 287.948 258.532 287.914 258.536C287.116 258.613 286.107 258.598 285.109 258.502C284.416 258.435 283.782 258.335 283.269 258.22C284.022 256.071 285.234 252.228 284.403 247.391C283.905 244.493 282.593 239.452 281.433 235.216C280.847 233.081 280.293 231.122 279.884 229.696C279.68 228.984 279.512 228.404 279.395 228.002C279.337 227.801 279.291 227.645 279.26 227.538L279.224 227.417L279.215 227.385L279.213 227.377L279.212 227.375L279.212 227.375C279.212 227.375 279.212 227.374 277.379 227.914L279.212 227.374L278.283 224.215L276.003 226.587L276.003 226.588L276.002 226.588L276.002 226.588L276.001 226.589L275.989 226.602C275.975 226.616 275.952 226.639 275.92 226.671C275.855 226.735 275.753 226.834 275.615 226.963C275.338 227.221 274.919 227.597 274.366 228.051C273.259 228.958 271.625 230.168 269.543 231.351C266.306 233.19 262.029 234.943 256.981 235.438C257.837 234.432 258.457 233.543 258.907 232.788C259.361 232.026 259.64 231.403 259.81 230.937C259.896 230.705 259.953 230.512 259.992 230.363C260.011 230.288 260.026 230.224 260.037 230.171C260.043 230.144 260.047 230.121 260.051 230.1L260.056 230.07L260.058 230.057L260.059 230.051L260.06 230.048C260.06 230.047 260.06 230.045 258.173 229.748ZM258.173 229.748L257.387 228.006L260.611 226.551L260.06 230.045L258.173 229.748ZM288.947 258.326C288.947 258.326 288.946 258.327 288.943 258.328C288.946 258.327 288.947 258.326 288.947 258.326Z" fill="black" stroke="black" stroke-width="3.82184"/>
<path d="M277.895 222.611C278.011 223.653 277.825 225.737 277.547 227.126" stroke="black" stroke-width="4"/>
<path fill-rule="evenodd" clip-rule="evenodd" d="M256.417 242.026C256.442 242.237 256.71 242.285 256.862 242.136C257.433 241.573 258.294 241.161 259.29 241.043C259.404 241.029 259.518 241.02 259.63 241.014C260.409 240.977 261.094 240.271 260.488 239.781C259.98 239.369 259.313 239.155 258.612 239.239C257.237 239.402 256.254 240.65 256.417 242.026Z" fill="black"/>
<path fill-rule="evenodd" clip-rule="evenodd" d="M271.262 239.715C271.287 239.924 271.552 239.972 271.702 239.824C272.268 239.266 273.121 238.858 274.108 238.741C274.216 238.728 274.322 238.719 274.428 238.714C275.207 238.673 275.891 237.967 275.281 237.48C274.78 237.079 274.124 236.872 273.436 236.954C272.073 237.115 271.1 238.352 271.262 239.715Z" fill="black"/>
<path d="M280.289 238.821C280.289 242.126 277.61 244.805 274.305 244.805C271 244.805 268.321 242.126 268.321 238.821C268.321 235.516 271 232.837 274.305 232.837C277.61 232.837 280.289 235.516 280.289 238.821Z" stroke="black"/>
<path d="M264.774 240.905C264.774 244.21 262.094 246.889 258.789 246.889C255.484 246.889 252.805 244.21 252.805 240.905C252.805 237.6 255.484 234.921 258.789 234.921C262.094 234.921 264.774 237.6 264.774 240.905Z" stroke="black"/>
<path d="M268.516 240.442C268.516 239.951 268.321 239.48 267.973 239.132C267.626 238.785 267.155 238.589 266.663 238.589C266.172 238.589 265.701 238.785 265.353 239.132C265.006 239.48 264.811 239.951 264.811 240.442" stroke="black"/>
<path d="M252.884 241.368L245.937 242.642" stroke="black"/>
<path d="M266.38 243.436C267.589 242.976 269.697 243.115 269.567 245.453C269.452 247.532 267.319 247.945 266.64 247.46" stroke="black"/>
<path d="M248.832 243.725C248.292 243.547 247.709 243.453 247.113 243.453C244.683 243.453 242.713 244.958 242.945 247.737C243.186 250.632 244.915 251.674 247.345 251.674C247.615 251.674 247.88 251.65 248.137 251.604C248.417 251.555 248.688 251.479 248.947 251.381" stroke="black"/>
<path d="M249.063 251.335C248.535 251.553 247.954 251.674 247.345 251.674C244.915 251.674 243.186 250.632 242.945 247.737C242.713 244.958 244.683 243.453 247.113 243.453C247.84 243.453 248.546 243.593 249.179 243.853L249.063 251.335Z" fill="#F9C9B6"/>
<path d="M248.137 245.421C247.21 244.997 245.172 244.773 244.431 247.274" stroke="black"/>
<path d="M245.705 245.537C246.207 245.961 247.164 247.274 246.979 249.126" stroke="black"/>
<path d="M248.021 250.4C251.091 250.4 253.579 252.888 253.579 255.958C253.579 259.027 251.091 261.516 248.021 261.516C244.951 261.516 242.463 259.027 242.463 255.958C242.463 254.478 243.274 253.295 243.985 252.137L244.2 251.789" stroke="#F4D150" stroke-width="2"/>
<path d="M294.875 290.658H231.693C231.699 290.644 231.706 290.63 231.713 290.616C232.766 288.473 234.707 284.519 237.234 280.981C238.668 278.973 240.274 277.125 241.989 275.825C243.705 274.525 245.489 273.804 247.301 273.963C250.786 274.268 253.89 276.176 257.008 278.092C257.303 278.274 257.598 278.455 257.894 278.636C261.248 280.68 264.695 282.579 268.485 281.748C269.768 281.467 270.633 280.865 271.178 280.087C271.714 279.32 271.907 278.429 271.94 277.615C271.974 276.799 271.849 276.029 271.719 275.469C271.659 275.208 271.597 274.99 271.547 274.829C272.385 273.986 273.272 273.495 274.188 273.274C275.182 273.034 276.244 273.103 277.362 273.434C279.614 274.1 282.024 275.807 284.377 278.003C288.684 282.022 292.635 287.521 294.875 290.658Z" fill="#FC909F" stroke="black"/>
</g>
<ellipse cx="640.28" cy="372" rx="44.2803" ry="44" fill="#FFEBA4"/>
<mask id="mask5" mask-type="alpha" maskUnits="userSpaceOnUse" x="596" y="328" width="89" height="88">
<ellipse cx="640.28" cy="372" rx="44.2803" ry="44" fill="#FFEDEF"/>
</mask>
<g mask="url(#mask5)">
<g clip-path="url(#clip2)">
<path d="M652.865 411.947C649.509 407.316 646.884 398.361 646.573 393.884L630.609 387.053L623.967 411.947H652.865Z" fill="#F9C9B6" stroke="black"/>
<mask id="mask6" mask-type="alpha" maskUnits="userSpaceOnUse" x="623" y="387" width="30" height="28">
<path d="M652.865 414.263C649.509 409.632 646.884 398.361 646.573 393.884L630.609 387.053L623.967 414.263H652.865Z" fill="#AC6651"/>
</mask>
<g mask="url(#mask6)">
<g style="mix-blend-mode:multiply">
<ellipse cx="645.874" cy="386.59" rx="13.7502" ry="12.5053" fill="black"/>
</g>
</g>
<mask id="path-61-inside-3" fill="white">
<path fill-rule="evenodd" clip-rule="evenodd" d="M659.832 372.916C659.825 372.886 659.818 372.856 659.811 372.827C659.804 372.797 659.797 372.768 659.79 372.738L655.973 356.909C655.968 356.89 655.964 356.87 655.959 356.851C655.954 356.831 655.95 356.812 655.945 356.792L655.931 356.733L655.93 356.733C653.549 347.136 643.813 341.234 634.124 343.541C624.435 345.848 618.447 355.493 620.701 365.121L620.701 365.121L624.661 381.544L624.664 381.543C627.135 391.016 636.799 396.814 646.417 394.524C656.034 392.234 662.005 382.714 659.888 373.157L659.891 373.156L659.832 372.916Z"/>
</mask>
<path fill-rule="evenodd" clip-rule="evenodd" d="M659.832 372.916C659.825 372.886 659.818 372.856 659.811 372.827C659.804 372.797 659.797 372.768 659.79 372.738L655.973 356.909C655.968 356.89 655.964 356.87 655.959 356.851C655.954 356.831 655.95 356.812 655.945 356.792L655.931 356.733L655.93 356.733C653.549 347.136 643.813 341.234 634.124 343.541C624.435 345.848 618.447 355.493 620.701 365.121L620.701 365.121L624.661 381.544L624.664 381.543C627.135 391.016 636.799 396.814 646.417 394.524C656.034 392.234 662.005 382.714 659.888 373.157L659.891 373.156L659.832 372.916Z" fill="#F9C9B6"/>
<path d="M659.832 372.916L658.859 373.145L658.86 373.15L659.832 372.916ZM659.811 372.827L658.839 373.061L658.839 373.061L659.811 372.827ZM659.79 372.738L658.818 372.972L658.819 372.977L659.79 372.738ZM655.973 356.909L655 357.14L655.001 357.144L655.973 356.909ZM655.959 356.851L654.987 357.085L654.987 357.085L655.959 356.851ZM655.945 356.792L654.973 357.027L654.974 357.03L655.945 356.792ZM655.931 356.733L656.903 356.499L656.669 355.528L655.697 355.761L655.931 356.733ZM655.93 356.733L654.96 356.974L655.199 357.938L656.164 357.706L655.93 356.733ZM634.124 343.541L633.892 342.568L634.124 343.541ZM620.701 365.121L620.933 366.093L621.902 365.863L621.675 364.893L620.701 365.121ZM620.701 365.121L620.469 364.148L619.494 364.38L619.729 365.355L620.701 365.121ZM624.661 381.544L623.689 381.778L623.922 382.748L624.892 382.517L624.661 381.544ZM624.664 381.543L625.632 381.291L625.385 380.344L624.432 380.57L624.664 381.543ZM659.888 373.157L659.656 372.184L658.698 372.412L658.911 373.373L659.888 373.157ZM659.891 373.156L660.122 374.129L661.098 373.897L660.863 372.922L659.891 373.156ZM660.806 372.686C660.798 372.655 660.791 372.624 660.783 372.592L658.839 373.061C658.846 373.089 658.853 373.117 658.859 373.145L660.806 372.686ZM660.783 372.592C660.776 372.561 660.768 372.53 660.761 372.499L658.819 372.977C658.826 373.005 658.832 373.033 658.839 373.061L660.783 372.592ZM655.001 357.144L658.818 372.972L660.762 372.504L656.945 356.675L655.001 357.144ZM656.946 356.678C656.941 356.658 656.936 356.637 656.931 356.616L654.987 357.085C654.991 357.104 654.996 357.122 655 357.14L656.946 356.678ZM656.931 356.616C656.926 356.596 656.921 356.575 656.916 356.555L654.974 357.03C654.978 357.048 654.983 357.067 654.987 357.085L656.931 356.616ZM654.959 356.968L654.973 357.027L656.917 356.558L656.903 356.499L654.959 356.968ZM656.164 357.706L656.164 357.706L655.697 355.761L655.697 355.761L656.164 357.706ZM656.901 356.493C654.386 346.358 644.11 340.136 633.892 342.568L634.355 344.514C643.516 342.333 652.712 347.914 654.96 356.974L656.901 356.493ZM633.892 342.568C623.672 345.001 617.347 355.179 619.728 365.349L621.675 364.893C619.547 355.806 625.197 346.694 634.355 344.514L633.892 342.568ZM620.932 366.094L620.933 366.093L620.47 364.148L620.469 364.148L620.932 366.094ZM625.633 381.309L621.673 364.886L619.729 365.355L623.689 381.778L625.633 381.309ZM624.432 380.57L624.429 380.571L624.892 382.517L624.896 382.516L624.432 380.57ZM623.696 381.795C626.306 391.798 636.506 397.911 646.648 395.497L646.185 393.551C637.093 395.716 627.964 390.233 625.632 381.291L623.696 381.795ZM646.648 395.497C656.793 393.081 663.1 383.035 660.864 372.941L658.911 373.373C660.91 382.393 655.276 391.387 646.185 393.551L646.648 395.497ZM659.659 372.184L659.656 372.184L660.119 374.13L660.122 374.129L659.659 372.184ZM658.86 373.15L658.918 373.391L660.863 372.922L660.805 372.681L658.86 373.15Z" fill="black" mask="url(#path-61-inside-3)"/>
</g>
<path d="M659.187 373.194C661.398 382.365 655.709 391.581 646.479 393.779C641.047 395.072 635.6 393.646 631.585 390.384C627.579 386.705 626.647 374.779 625.759 369.14C629.022 376.435 637.324 377.001 645.219 375.624C651.861 374.466 657.174 374.235 657.174 365.203C657.614 365.809 658.801 371.592 659.187 373.194Z" fill="black"/>
<rect width="16.3133" height="5.55807" rx="2.77903" transform="matrix(0.997595 -0.0693171 0.0701986 0.997533 636.376 379.056)" fill="black"/>
<path fill-rule="evenodd" clip-rule="evenodd" d="M652.598 378.241C652.18 378.07 651.718 377.99 651.237 378.024L639.243 378.857C638.762 378.891 638.314 379.034 637.924 379.262C638.503 380.83 640.055 381.851 641.75 381.733L641.75 381.733C640.055 381.851 638.662 383.076 638.308 384.709C638.726 384.88 639.189 384.96 639.67 384.927L651.664 384.093C652.145 384.06 652.591 383.917 652.981 383.69C652.402 382.122 650.851 381.101 649.156 381.218L649.156 381.218C650.851 381.101 652.244 379.874 652.598 378.241Z" fill="white"/>
<path d="M639.2 378.248C637.165 378.141 635.428 379.824 635.574 381.898C635.72 383.972 637.675 385.398 639.675 385.011C641.309 384.694 643.342 384.35 644.918 384.241C646.494 384.131 648.555 384.191 650.217 384.278C652.252 384.386 653.989 382.703 653.843 380.628C653.697 378.554 651.741 377.128 649.741 377.516C648.108 377.832 646.075 378.176 644.499 378.286C642.923 378.395 640.862 378.336 639.2 378.248Z" stroke="black" stroke-width="2"/>
<path d="M647.039 358.618C648.359 358.001 651.467 357.437 653.331 360.123" stroke="black" stroke-linecap="round"/>
<path d="M629.462 364.479C629.944 363.11 631.718 360.513 634.953 361.075" stroke="black" stroke-linecap="round"/>
<ellipse rx="2.0973" ry="3.12659" transform="matrix(0.993101 -0.117259 0.118737 0.992926 635.277 366.999)" fill="black"/>
<ellipse rx="2.09733" ry="3.12655" transform="matrix(0.994082 -0.108629 0.11 0.993932 650.192 364.683)" fill="black"/>
<path d="M643.34 367.159C643.795 370.369 645.767 372.666 645.767 372.666C645.767 372.666 645.154 374.155 642.781 374.018" stroke="#171921"/>
<path d="M625.015 369.725C624.472 369.547 623.886 369.453 623.286 369.453C620.841 369.453 618.858 370.958 619.091 373.737C619.334 376.632 621.074 377.674 623.519 377.674C623.791 377.674 624.058 377.65 624.316 377.604C624.598 377.555 624.871 377.479 625.132 377.381" stroke="black" stroke-width="2"/>
<path d="M625.248 377.335C624.717 377.553 624.133 377.674 623.519 377.674C621.074 377.674 619.334 376.632 619.091 373.737C618.858 370.958 620.841 369.453 623.286 369.453C624.017 369.453 624.728 369.593 625.365 369.853L625.248 377.335Z" fill="#F9C9B6"/>
<path d="M624.316 371.421C623.384 370.997 621.333 370.773 620.587 373.274" stroke="black" stroke-width="2"/>
<path d="M621.869 371.537C622.374 371.961 623.337 373.274 623.151 375.126" stroke="black" stroke-width="2"/>
<path d="M640.207 411.301L640.513 410.905L640.207 411.301L640.636 411.632L640.932 411.178L640.932 411.178L640.933 411.178L640.935 411.174L640.944 411.16C640.948 411.154 640.953 411.147 640.959 411.138C640.966 411.128 640.974 411.115 640.983 411.101C641.018 411.049 641.071 410.972 641.139 410.874C641.276 410.677 641.477 410.396 641.732 410.059C642.243 409.385 642.965 408.495 643.816 407.625C644.669 406.752 645.636 405.914 646.635 405.332C647.637 404.747 648.623 404.447 649.536 404.569C659.389 405.889 666.644 410.216 671.363 416.658H607.8C611.592 409.904 616.981 405.603 625.708 403.626C626.075 403.543 626.577 403.568 627.21 403.714C627.835 403.859 628.549 404.113 629.321 404.45C630.863 405.123 632.585 406.106 634.205 407.124C635.822 408.141 637.323 409.186 638.421 409.977C638.97 410.372 639.417 410.704 639.727 410.936C639.882 411.053 640.002 411.144 640.084 411.206L640.176 411.277L640.2 411.295L640.205 411.299L640.207 411.3L640.207 411.301Z" fill="#6BD9E9" stroke="black"/>
<path d="M623.031 403.888L623.768 401.16C623.978 400.383 624.991 400.149 625.607 400.667C627.92 402.612 630.452 403.104 632.19 403.169C633.041 403.202 633.725 404.185 633.326 404.938L631.297 408.762C631.094 409.143 630.671 409.35 630.254 409.241C628.752 408.852 625.202 407.654 623.153 404.667C622.997 404.44 622.959 404.154 623.031 403.888Z" fill="#D2EFF3" stroke="black"/>
<path d="M653.137 403.785L651.355 400.805C650.961 400.147 649.972 400.148 649.437 400.697C648.56 401.597 647.53 402.194 646.747 402.559C646.149 402.838 645.859 403.592 646.197 404.16L648.572 408.148C648.774 408.487 649.158 408.663 649.512 408.491C650.239 408.138 651.556 407.214 653.122 404.819C653.326 404.507 653.328 404.105 653.137 403.785Z" fill="#D2EFF3" stroke="black"/>
<path d="M636.202 408.242L634.104 403.263L632.473 406.737L636.202 408.242Z" fill="black" stroke="black" stroke-linejoin="round"/>
<path d="M643.543 408.011L645.64 403.032L647.272 406.505L643.543 408.011Z" fill="black" stroke="black" stroke-linejoin="round"/>
<path d="M627.113 398.863L624.316 399.558L626.647 401.063L627.113 398.863Z" fill="black" stroke="black" stroke-linejoin="round"/>
<path d="M647.971 398.863L650.535 399.558L648.903 401.063L647.971 398.863Z" fill="black" stroke="black" stroke-linejoin="round"/>
<path d="M629.909 367.947L621.869 369.481" stroke="black" stroke-linecap="round"/>
<path d="M630.188 368.771C629.36 365.499 631.553 362.237 634.895 361.77C637.999 361.337 640.871 363.501 641.31 366.603L641.402 367.254C641.838 370.338 639.691 373.187 636.607 373.617C633.754 374.016 631.056 372.201 630.349 369.408L630.188 368.771Z" stroke="black"/>
<path d="M657.589 364.993C657.479 361.62 654.468 359.087 651.127 359.556C648.023 359.992 645.862 362.86 646.298 365.963L646.39 366.614C646.824 369.698 649.676 371.847 652.76 371.414C655.612 371.014 657.703 368.528 657.61 365.65L657.589 364.993Z" stroke="black"/>
<path d="M641.329 366.703L646.456 365.892" stroke="black"/>
</g>
<circle cx="932" cy="265" r="44" fill="#D2EFF3"/>
<mask id="mask7" mask-type="alpha" maskUnits="userSpaceOnUse" x="888" y="221" width="88" height="88">
<circle cx="932" cy="265" r="44" fill="#FFEDEF"/>
</mask>
<g mask="url(#mask7)">
<g clip-path="url(#clip3)">
<path d="M943.791 303.645C940.435 299.013 937.809 290.059 937.498 285.582L921.534 278.75L914.892 303.645H943.791Z" fill="#AC6651" stroke="black"/>
<mask id="mask8" mask-type="alpha" maskUnits="userSpaceOnUse" x="914" y="278" width="30" height="28">
<path d="M943.791 305.961C940.435 301.329 937.809 290.059 937.498 285.582L921.534 278.75L914.892 305.961H943.791Z" fill="#AC6651"/>
</mask>
<g mask="url(#mask8)">
<g style="mix-blend-mode:multiply">
<ellipse cx="936.799" cy="278.287" rx="13.7502" ry="12.5053" fill="black"/>
</g>
</g>
<mask id="path-92-inside-4" fill="white">
<path fill-rule="evenodd" clip-rule="evenodd" d="M951.426 265.905C951.42 265.879 951.413 265.853 951.407 265.827C951.401 265.801 951.395 265.775 951.388 265.749L947.591 249.9C947.587 249.883 947.583 249.867 947.579 249.851C947.575 249.834 947.572 249.818 947.568 249.802L947.551 249.733L947.551 249.733C945.185 240.136 935.51 234.234 925.882 236.541C916.255 238.848 910.305 248.493 912.545 258.121L912.544 258.121L916.479 274.544L916.482 274.543C918.938 284.016 928.541 289.814 938.097 287.524C947.654 285.234 953.587 275.714 951.483 266.157L951.486 266.156L951.426 265.905Z"/>
</mask>
<path fill-rule="evenodd" clip-rule="evenodd" d="M951.426 265.905C951.42 265.879 951.413 265.853 951.407 265.827C951.401 265.801 951.395 265.775 951.388 265.749L947.591 249.9C947.587 249.883 947.583 249.867 947.579 249.851C947.575 249.834 947.572 249.818 947.568 249.802L947.551 249.733L947.551 249.733C945.185 240.136 935.51 234.234 925.882 236.541C916.255 238.848 910.305 248.493 912.545 258.121L912.544 258.121L916.479 274.544L916.482 274.543C918.938 284.016 928.541 289.814 938.097 287.524C947.654 285.234 953.587 275.714 951.483 266.157L951.486 266.156L951.426 265.905Z" fill="#AC6651"/>
<path d="M951.426 265.905L950.452 266.134L950.453 266.138L951.426 265.905ZM951.407 265.827L950.435 266.06L950.435 266.06L951.407 265.827ZM951.388 265.749L950.416 265.982L950.417 265.986L951.388 265.749ZM947.591 249.9L946.618 250.13L946.619 250.133L947.591 249.9ZM947.579 249.851L948.552 249.618L948.552 249.618L947.579 249.851ZM947.568 249.802L946.595 250.035L946.596 250.038L947.568 249.802ZM947.551 249.733L948.524 249.5L948.29 248.527L947.317 248.761L947.551 249.733ZM947.551 249.733L946.58 249.973L946.818 250.939L947.785 250.706L947.551 249.733ZM925.882 236.541L926.115 237.513L925.882 236.541ZM912.545 258.121L912.778 259.093L913.744 258.861L913.519 257.894L912.545 258.121ZM912.544 258.121L912.311 257.148L911.339 257.382L911.572 258.354L912.544 258.121ZM916.479 274.544L915.507 274.777L915.74 275.749L916.712 275.516L916.479 274.544ZM916.482 274.543L917.45 274.292L917.204 273.342L916.249 273.571L916.482 274.543ZM938.097 287.524L937.864 286.551L938.097 287.524ZM951.483 266.157L951.25 265.185L950.295 265.414L950.507 266.372L951.483 266.157ZM951.486 266.156L951.719 267.129L952.691 266.896L952.458 265.923L951.486 266.156ZM952.399 265.676C952.393 265.649 952.386 265.621 952.38 265.594L950.435 266.06C950.441 266.084 950.446 266.109 950.452 266.134L952.399 265.676ZM952.38 265.594C952.373 265.566 952.366 265.539 952.36 265.511L950.417 265.986C950.423 266.011 950.429 266.035 950.435 266.06L952.38 265.594ZM946.619 250.133L950.416 265.982L952.361 265.516L948.564 249.667L946.619 250.133ZM948.564 249.669C948.56 249.652 948.556 249.635 948.552 249.618L946.607 250.084C946.611 250.099 946.614 250.115 946.618 250.13L948.564 249.669ZM948.552 249.618C948.548 249.601 948.544 249.583 948.539 249.566L946.596 250.038C946.599 250.053 946.603 250.068 946.607 250.084L948.552 249.618ZM946.579 249.966L946.595 250.035L948.54 249.569L948.524 249.5L946.579 249.966ZM947.785 250.706L947.785 250.706L947.317 248.761L947.317 248.761L947.785 250.706ZM948.522 249.494C946.024 239.363 935.812 233.134 925.649 235.569L926.115 237.513C935.208 235.335 944.345 240.909 946.58 249.973L948.522 249.494ZM925.649 235.569C915.487 238.003 909.206 248.184 911.571 258.347L913.519 257.894C911.403 248.801 917.022 239.692 926.115 237.513L925.649 235.569ZM912.778 259.093L912.778 259.093L912.311 257.148L912.311 257.148L912.778 259.093ZM917.452 274.311L913.517 257.888L911.572 258.354L915.507 274.777L917.452 274.311ZM916.249 273.571L916.246 273.571L916.712 275.516L916.715 275.516L916.249 273.571ZM915.514 274.794C918.106 284.793 928.243 290.913 938.33 288.496L937.864 286.551C928.839 288.714 919.769 283.238 917.45 274.292L915.514 274.794ZM938.33 288.496C948.418 286.079 954.681 276.03 952.46 265.942L950.507 266.372C952.493 275.398 946.89 284.389 937.864 286.551L938.33 288.496ZM951.253 265.184L951.25 265.185L951.716 267.13L951.719 267.129L951.253 265.184ZM950.453 266.138L950.514 266.389L952.458 265.923L952.398 265.672L950.453 266.138Z" fill="black" mask="url(#path-92-inside-4)"/>
</g>
<path d="M944.539 272.167C944.598 271.069 943.476 270.512 942.6 270.835C941.169 271.364 938.808 272.162 937.035 272.406C935.057 272.678 932.263 272.474 930.627 272.307C929.699 272.212 928.758 273.027 929.08 274.072C929.248 274.618 929.475 275.146 929.758 275.645C930.271 276.549 930.956 277.343 931.775 277.982C932.594 278.621 933.531 279.092 934.533 279.369C935.534 279.645 936.58 279.722 937.611 279.594C938.642 279.467 939.638 279.138 940.541 278.625C941.445 278.113 942.239 277.427 942.878 276.608C943.516 275.789 943.988 274.852 944.264 273.851C944.417 273.3 944.508 272.735 944.539 272.167Z" fill="black" stroke="black"/>
<mask id="mask9" mask-type="alpha" maskUnits="userSpaceOnUse" x="929" y="270" width="16" height="10">
<path d="M943.994 270.834C944.114 271.8 944.042 272.78 943.782 273.718C943.523 274.656 943.082 275.533 942.483 276.301C941.885 277.068 941.141 277.71 940.295 278.19C939.448 278.67 938.515 278.979 937.55 279.098C936.584 279.218 935.604 279.146 934.666 278.887C933.728 278.627 932.85 278.186 932.083 277.588C931.315 276.989 930.673 276.245 930.193 275.399C929.713 274.552 929.405 273.619 929.285 272.654L943.994 270.834Z" fill="#171921"/>
</mask>
<g mask="url(#mask9)">
<ellipse cx="937.679" cy="280.125" rx="4.97895" ry="4.97895" transform="rotate(-7.05286 937.679 280.125)" fill="#FC909F"/>
</g>
<path d="M938.716 251.618C940.028 251.001 943.116 250.437 944.968 253.123" stroke="black" stroke-linecap="round"/>
<path d="M921.25 257.479C921.729 256.11 923.492 253.513 926.707 254.075" stroke="black" stroke-linecap="round"/>
<path d="M921.828 256.075L920.404 254.818" stroke="black" stroke-linecap="round"/>
<path d="M944.265 251.836L945.688 250.58" stroke="black" stroke-linecap="round"/>
<path d="M923.321 254.768L922.384 253.116" stroke="black" stroke-linecap="round"/>
<path d="M942.539 250.993L943.477 249.341" stroke="black" stroke-linecap="round"/>
<path d="M925.191 253.931L924.682 252.101" stroke="black" stroke-linecap="round"/>
<path d="M940.438 250.851L940.948 249.021" stroke="black" stroke-linecap="round"/>
<path d="M944.453 306.148C944.354 306.142 944.27 306.136 944.201 306.131C942.788 303.962 941.497 300.395 940.496 296.725C939.525 293.168 938.842 289.578 938.58 287.192C947.168 284.683 952.542 275.81 951.248 266.659C951.248 266.657 951.248 266.656 951.248 266.655L951.248 266.655C951.247 266.645 951.245 266.635 951.244 266.628C951.242 266.614 951.24 266.598 951.237 266.581C951.232 266.547 951.224 266.503 951.214 266.449C951.194 266.34 951.165 266.187 951.128 265.995C951.052 265.612 950.942 265.071 950.8 264.416C950.518 263.107 950.111 261.339 949.615 259.463C949.119 257.589 948.532 255.6 947.887 253.852C947.248 252.117 946.534 250.568 945.769 249.612L945.691 249.515L945.577 249.465C945.132 249.272 944.669 249.056 944.185 248.831C941.885 247.76 939.115 246.47 935.53 246.328C931.166 246.156 925.647 247.672 918.197 253.075L917.668 253.459L918.177 253.869C921.846 256.826 922.641 260.747 922.471 264.082C922.346 266.545 921.696 268.652 921.301 269.769C921.073 269.401 920.921 268.948 920.803 268.418C920.714 268.019 920.65 267.598 920.582 267.155L920.571 267.086C920.5 266.624 920.424 266.14 920.313 265.673C920.091 264.739 919.715 263.795 918.873 263.126C918.029 262.455 916.805 262.128 915.037 262.227L914.455 262.259L914.576 262.83L917.207 275.176L917.212 275.2L917.219 275.222C918.161 278.207 919.775 280.796 921.84 282.839C921.857 282.868 921.881 282.909 921.911 282.961C921.978 283.075 922.074 283.243 922.191 283.453C922.424 283.874 922.738 284.465 923.06 285.146C923.711 286.522 924.367 288.206 924.493 289.576C924.621 290.967 924.271 292.767 923.867 294.26C923.668 294.997 923.46 295.645 923.302 296.107C923.278 296.18 923.254 296.248 923.232 296.311C922.075 295.776 921.034 295.823 920.138 296.344C919.158 296.915 918.445 298.002 917.918 299.2C916.965 301.363 916.502 304.158 916.285 305.92C910.558 304.604 906.134 303.269 903.121 302.255C901.567 301.731 900.388 301.293 899.599 300.986C899.205 300.833 898.908 300.713 898.711 300.631C898.672 300.614 898.636 300.6 898.605 300.587C898.57 300.498 898.525 300.379 898.471 300.231C898.34 299.873 898.158 299.345 897.955 298.673C897.548 297.33 897.06 295.413 896.735 293.129C896.083 288.556 896.089 282.54 898.675 276.691C899.092 275.747 899.615 274.776 900.181 273.722C902.374 269.646 905.23 264.337 905.23 254.598C905.23 247.534 908.658 241.583 913.71 237.387C918.767 233.185 925.427 230.763 931.823 230.763C935.324 230.763 938.128 231.165 940.379 232.524C942.614 233.874 944.379 236.217 945.692 240.269C945.835 240.711 946.309 240.983 946.773 240.832C949.371 239.989 953.326 240.839 956.672 243.023C960.001 245.196 962.578 248.594 962.578 252.683C962.578 256.248 961.967 258.656 961.371 261.006L961.371 261.007C960.648 263.854 959.949 266.611 960.442 271.1C960.607 272.599 960.942 273.666 961.413 274.551C961.875 275.421 962.457 276.094 963.066 276.798L963.082 276.816C964.53 278.49 965.185 279.863 965.396 281.065C965.607 282.263 965.387 283.352 964.974 284.488C964.767 285.059 964.514 285.633 964.246 286.239L964.222 286.292C963.963 286.878 963.69 287.494 963.445 288.141C962.938 289.482 962.541 290.98 962.581 292.756C962.614 294.262 962.881 295.299 963.284 296.086C963.681 296.863 964.194 297.361 964.637 297.789L964.65 297.802C965.054 298.194 965.384 298.517 965.627 298.97C965.841 299.367 966.003 299.894 966.034 300.685C960.492 303.974 955.009 305.335 950.89 305.871C948.8 306.143 947.064 306.202 945.853 306.193C945.247 306.189 944.774 306.168 944.453 306.148Z" fill="#FC909F" stroke="black"/>
<ellipse cx="926.932" cy="259.888" rx="2.08421" ry="2.31579" transform="rotate(-6.77646 926.932 259.888)" fill="black"/>
<ellipse cx="941.76" cy="257.572" rx="2.08421" ry="2.31579" transform="rotate(-6.27567 941.76 257.572)" fill="black"/>
<path d="M934.38 262.436C935.589 261.976 937.697 262.115 937.567 264.453C937.452 266.532 935.319 266.945 934.64 266.46" stroke="black"/>
<path d="M916.832 262.725C916.292 262.547 915.709 262.453 915.113 262.453C912.683 262.453 910.713 263.958 910.945 266.737C911.186 269.632 912.915 270.674 915.345 270.674C915.615 270.674 915.88 270.65 916.137 270.604C916.417 270.555 916.688 270.479 916.947 270.381" stroke="black"/>
<path d="M917.063 270.335C916.535 270.553 915.954 270.674 915.345 270.674C912.915 270.674 911.186 269.632 910.945 266.737C910.713 263.958 912.683 262.453 915.113 262.453C915.84 262.453 916.546 262.593 917.179 262.853L917.063 270.335Z" fill="#AC6651"/>
<path d="M916.137 264.421C915.21 263.997 913.172 263.773 912.431 266.274" stroke="black" stroke-width="2"/>
<path d="M913.705 264.537C914.207 264.961 915.164 266.274 914.979 268.126" stroke="black" stroke-width="2"/>
<path d="M916.021 269.4C919.091 269.4 921.579 271.888 921.579 274.958C921.579 278.027 919.091 280.516 916.021 280.516C912.951 280.516 910.463 278.027 910.463 274.958C910.463 273.478 911.274 272.295 911.985 271.137L912.2 270.789" stroke="#F4D150" stroke-width="2"/>
<path d="M962.875 309.658H899.693C899.699 309.644 899.706 309.63 899.713 309.616C900.766 307.473 902.707 303.519 905.234 299.981C906.668 297.973 908.274 296.125 909.989 294.825C911.705 293.525 913.489 292.804 915.301 292.963C918.786 293.268 921.89 295.176 925.008 297.092C925.303 297.274 925.598 297.455 925.894 297.636C929.248 299.68 932.695 301.579 936.485 300.748C937.768 300.467 938.633 299.865 939.178 299.087C939.714 298.32 939.907 297.429 939.94 296.615C939.974 295.799 939.849 295.029 939.719 294.469C939.659 294.208 939.597 293.99 939.547 293.829C940.385 292.986 941.272 292.495 942.188 292.274C943.182 292.034 944.244 292.103 945.362 292.434C947.614 293.1 950.024 294.807 952.377 297.003C956.684 301.022 960.635 306.521 962.875 309.658Z" fill="white" stroke="black"/>
</g>
<circle cx="1157" cy="92" r="44" fill="white"/>
<mask id="mask10" mask-type="alpha" maskUnits="userSpaceOnUse" x="1113" y="48" width="88" height="88">
<circle cx="1157" cy="92" r="44" fill="#FFEDEF"/>
</mask>
<g mask="url(#mask10)">
<g clip-path="url(#clip4)">
<path d="M1169.51 131.947C1166.17 127.316 1163.56 118.361 1163.25 113.884L1147.39 107.053L1140.79 131.947H1169.51Z" fill="#77311D" stroke="black"/>
<mask id="mask11" mask-type="alpha" maskUnits="userSpaceOnUse" x="1140" y="107" width="30" height="28">
<path d="M1169.51 134.263C1166.17 129.632 1163.56 118.361 1163.25 113.884L1147.39 107.053L1140.79 134.263H1169.51Z" fill="#AC6651"/>
</mask>
<g mask="url(#mask11)">
<g style="mix-blend-mode:multiply">
<ellipse cx="1162.56" cy="106.589" rx="13.6632" ry="12.5053" fill="black"/>
</g>
</g>
<mask id="path-120-inside-5" fill="white">
<path fill-rule="evenodd" clip-rule="evenodd" d="M1176.43 92.9075C1176.42 92.8806 1176.41 92.8537 1176.41 92.8268C1176.4 92.7999 1176.39 92.773 1176.39 92.7461L1172.59 76.8944C1172.59 76.8798 1172.58 76.8653 1172.58 76.8508C1172.58 76.8362 1172.57 76.8217 1172.57 76.8072L1172.55 76.7334L1172.55 76.7335C1170.18 67.1357 1160.51 61.2343 1150.88 63.541C1141.25 65.8477 1135.3 75.4926 1137.54 85.1206L1137.54 85.1207L1141.48 101.544L1141.48 101.543C1143.94 111.016 1153.54 116.814 1163.1 114.524C1172.65 112.234 1178.59 102.714 1176.48 93.1572L1176.49 93.1565L1176.43 92.9075Z"/>
</mask>
<path fill-rule="evenodd" clip-rule="evenodd" d="M1176.43 92.9075C1176.42 92.8806 1176.41 92.8537 1176.41 92.8268C1176.4 92.7999 1176.39 92.773 1176.39 92.7461L1172.59 76.8944C1172.59 76.8798 1172.58 76.8653 1172.58 76.8508C1172.58 76.8362 1172.57 76.8217 1172.57 76.8072L1172.55 76.7334L1172.55 76.7335C1170.18 67.1357 1160.51 61.2343 1150.88 63.541C1141.25 65.8477 1135.3 75.4926 1137.54 85.1206L1137.54 85.1207L1141.48 101.544L1141.48 101.543C1143.94 111.016 1153.54 116.814 1163.1 114.524C1172.65 112.234 1178.59 102.714 1176.48 93.1572L1176.49 93.1565L1176.43 92.9075Z" fill="#77311D"/>
<path d="M1176.43 92.9075L1175.45 93.1362L1175.45 93.1405L1176.43 92.9075ZM1176.41 92.8268L1175.43 93.0597L1175.43 93.0597L1176.41 92.8268ZM1176.39 92.7461L1175.42 92.9791L1175.42 92.9835L1176.39 92.7461ZM1172.59 76.8944L1171.62 77.1249L1171.62 77.1274L1172.59 76.8944ZM1172.58 76.8508L1171.61 77.0837L1171.61 77.0837L1172.58 76.8508ZM1172.57 76.8072L1171.6 77.0402L1171.6 77.0425L1172.57 76.8072ZM1172.55 76.7334L1173.52 76.5004L1173.29 75.5289L1172.32 75.7607L1172.55 76.7334ZM1172.55 76.7335L1171.58 76.9729L1171.82 77.9364L1172.78 77.7062L1172.55 76.7335ZM1150.88 63.541L1151.12 64.5135L1150.88 63.541ZM1137.54 85.1206L1137.78 86.0932L1138.74 85.862L1138.52 84.894L1137.54 85.1206ZM1137.54 85.1207L1137.31 84.1482L1136.34 84.3809L1136.57 85.3537L1137.54 85.1207ZM1141.48 101.544L1140.51 101.777L1140.74 102.75L1141.71 102.516L1141.48 101.544ZM1141.48 101.543L1142.45 101.292L1142.2 100.341L1141.25 100.571L1141.48 101.543ZM1176.48 93.1572L1176.25 92.1846L1175.3 92.4132L1175.51 93.3722L1176.48 93.1572ZM1176.49 93.1565L1176.72 94.129L1177.69 93.8962L1177.46 92.9235L1176.49 93.1565ZM1177.4 92.6788C1177.39 92.6505 1177.39 92.6222 1177.38 92.5938L1175.43 93.0597C1175.44 93.0852 1175.45 93.1107 1175.45 93.1362L1177.4 92.6788ZM1177.38 92.5938C1177.37 92.5654 1177.37 92.537 1177.36 92.5088L1175.42 92.9835C1175.42 93.0089 1175.43 93.0343 1175.43 93.0597L1177.38 92.5938ZM1171.62 77.1274L1175.42 92.9791L1177.36 92.5131L1173.56 76.6614L1171.62 77.1274ZM1173.56 76.6639C1173.56 76.6484 1173.56 76.633 1173.55 76.6178L1171.61 77.0837C1171.61 77.0976 1171.61 77.1113 1171.62 77.1249L1173.56 76.6639ZM1173.55 76.6178C1173.55 76.6024 1173.54 76.5871 1173.54 76.5718L1171.6 77.0425C1171.6 77.0563 1171.6 77.07 1171.61 77.0837L1173.55 76.6178ZM1171.58 76.9664L1171.6 77.0402L1173.54 76.5742L1173.52 76.5004L1171.58 76.9664ZM1172.78 77.7062L1172.78 77.7061L1172.32 75.7607L1172.32 75.7608L1172.78 77.7062ZM1173.52 76.4941C1171.02 66.363 1160.81 60.1336 1150.65 62.5685L1151.12 64.5135C1160.21 62.3349 1169.35 67.9085 1171.58 76.9729L1173.52 76.4941ZM1150.65 62.5685C1140.49 65.0034 1134.21 75.1842 1136.57 85.3472L1138.52 84.894C1136.4 75.8011 1142.02 66.692 1151.12 64.5135L1150.65 62.5685ZM1137.78 86.0933L1137.78 86.0932L1137.31 84.1481L1137.31 84.1482L1137.78 86.0933ZM1142.45 101.311L1138.52 84.8877L1136.57 85.3537L1140.51 101.777L1142.45 101.311ZM1141.25 100.571L1141.25 100.571L1141.71 102.516L1141.72 102.515L1141.25 100.571ZM1140.51 101.794C1143.11 111.793 1153.24 117.913 1163.33 115.496L1162.86 113.551C1153.84 115.714 1144.77 110.238 1142.45 101.292L1140.51 101.794ZM1163.33 115.496C1173.42 113.079 1179.68 103.03 1177.46 92.9422L1175.51 93.3722C1177.49 102.398 1171.89 111.389 1162.86 113.551L1163.33 115.496ZM1176.25 92.184L1176.25 92.1846L1176.72 94.1297L1176.72 94.129L1176.25 92.184ZM1175.45 93.1405L1175.51 93.3895L1177.46 92.9235L1177.4 92.6745L1175.45 93.1405Z" fill="black" mask="url(#path-120-inside-5)"/>
</g>
<path d="M1169.54 99.1673C1169.6 98.0694 1168.48 97.5116 1167.6 97.8355C1166.17 98.364 1163.81 99.1624 1162.03 99.4063C1160.06 99.6784 1157.26 99.4739 1155.63 99.3067C1154.7 99.2118 1153.76 100.027 1154.08 101.072C1154.25 101.618 1154.48 102.146 1154.76 102.645C1155.27 103.549 1155.96 104.343 1156.78 104.982C1157.59 105.621 1158.53 106.092 1159.53 106.369C1160.53 106.645 1161.58 106.722 1162.61 106.594C1163.64 106.467 1164.64 106.138 1165.54 105.625C1166.44 105.113 1167.24 104.427 1167.88 103.608C1168.52 102.789 1168.99 101.852 1169.26 100.851C1169.42 100.3 1169.51 99.7353 1169.54 99.1673Z" fill="black" stroke="black"/>
<mask id="mask12" mask-type="alpha" maskUnits="userSpaceOnUse" x="1154" y="97" width="16" height="10">
<path d="M1168.99 97.8339C1169.11 98.7997 1169.04 99.7796 1168.78 100.718C1168.52 101.656 1168.08 102.533 1167.48 103.301C1166.88 104.068 1166.14 104.71 1165.29 105.19C1164.45 105.67 1163.52 105.979 1162.55 106.098C1161.58 106.218 1160.6 106.146 1159.67 105.887C1158.73 105.627 1157.85 105.186 1157.08 104.588C1156.32 103.989 1155.67 103.245 1155.19 102.399C1154.71 101.552 1154.4 100.619 1154.29 99.6537L1168.99 97.8339Z" fill="#171921"/>
</mask>
<g mask="url(#mask12)">
<circle cx="1162.68" cy="107.125" r="4.97895" transform="rotate(-7.05286 1162.68 107.125)" fill="#FC909F"/>
</g>
<path d="M1163.72 78.6181C1165.03 78.0006 1168.12 77.4371 1169.97 80.1234" stroke="black" stroke-linecap="round"/>
<path d="M1146.25 84.4786C1146.73 83.1098 1148.49 80.5128 1151.71 81.0747" stroke="black" stroke-linecap="round"/>
<path d="M1175.34 67.0812C1173.41 76.3206 1150.63 77.618 1146.04 77.618C1133.99 78.9905 1139.78 93.4502 1141.99 100.66C1140.25 100.892 1140.48 102.976 1133.77 86.4181C1128.39 73.1717 1143.61 65.0983 1154.92 62.3577C1166.22 59.6172 1170.55 55.7583 1170.55 55.7583C1175.34 57.7263 1176.48 61.5979 1175.34 67.0812Z" fill="black"/>
<path d="M1174.17 84.114L1170.5 71.7385L1172.83 69.6212C1175.32 78.21 1175.43 83.1973 1174.17 84.114Z" fill="black"/>
<path d="M1145.19 94.5474C1143.89 88.2484 1140.64 89.3755 1138.47 89.6842L1136.16 79.4947L1145.56 77.5276C1145.73 77.472 1145.92 77.4326 1146.12 77.4105L1145.56 77.5276C1141.35 78.8692 1144.25 89.6369 1147.74 94.0842L1145.19 94.5474Z" fill="black"/>
<path d="M1132.45 70.7787C1134.5 69.7473 1136.92 70.3443 1137.87 70.7718L1135.15 74.2178C1135.85 73.0931 1133.64 71.4564 1132.45 70.7787Z" fill="black"/>
<path d="M1128.98 74.7473C1131.67 73.1725 1134.27 73.7052 1135.23 74.1683L1134.19 77.7579C1133.91 75.8126 1130.6 74.9403 1128.98 74.7473Z" fill="black"/>
<path fill-rule="evenodd" clip-rule="evenodd" d="M1149.42 88.0258C1149.44 88.237 1149.71 88.285 1149.86 88.1357C1150.43 87.5729 1151.29 87.161 1152.29 87.0427C1152.4 87.0291 1152.52 87.0197 1152.63 87.0143C1153.41 86.9769 1154.09 86.2715 1153.49 85.7805C1152.98 85.3691 1152.31 85.1554 1151.61 85.2386C1150.24 85.4021 1149.25 86.65 1149.42 88.0258Z" fill="black"/>
<path fill-rule="evenodd" clip-rule="evenodd" d="M1164.26 85.7148C1164.29 85.924 1164.55 85.9716 1164.7 85.8237C1165.27 85.2661 1166.12 84.8581 1167.11 84.7408C1167.22 84.728 1167.32 84.719 1167.43 84.7135C1168.21 84.6734 1168.89 83.967 1168.28 83.48C1167.78 83.0792 1167.12 82.8718 1166.44 82.9535C1165.07 83.1155 1164.1 84.3517 1164.26 85.7148Z" fill="black"/>
<path d="M1159.38 89.4356C1160.59 88.9756 1162.7 89.1145 1162.57 91.4533C1162.45 93.5319 1160.32 93.9446 1159.64 93.4599" stroke="black"/>
<path d="M1141.83 89.7249C1141.29 89.5472 1140.71 89.4526 1140.11 89.4526C1137.68 89.4526 1135.71 90.9579 1135.94 93.7368C1136.19 96.6316 1137.91 97.6737 1140.34 97.6737C1140.62 97.6737 1140.88 97.6499 1141.14 97.6045C1141.42 97.5549 1141.69 97.4794 1141.95 97.3807" stroke="black"/>
<path d="M1142.06 97.3347C1141.54 97.553 1140.95 97.6737 1140.34 97.6737C1137.91 97.6737 1136.19 96.6316 1135.94 93.7368C1135.71 90.9579 1137.68 89.4526 1140.11 89.4526C1140.84 89.4526 1141.55 89.5931 1142.18 89.8532L1142.06 97.3347Z" fill="#77311D"/>
<path d="M1141.14 91.4211C1140.21 90.9965 1138.17 90.7727 1137.43 93.2737" stroke="black"/>
<path d="M1138.71 91.5367C1139.21 91.9613 1140.16 93.2736 1139.98 95.1262" stroke="black"/>
<path d="M1156.92 131.3L1157.23 130.905L1156.92 131.3L1157.35 131.635L1157.65 131.177L1157.65 131.177L1157.65 131.176L1157.65 131.173L1157.66 131.159C1157.67 131.146 1157.68 131.126 1157.7 131.1C1157.74 131.048 1157.79 130.971 1157.86 130.873C1157.99 130.676 1158.19 130.395 1158.45 130.058C1158.95 129.384 1159.67 128.494 1160.52 127.623C1161.36 126.751 1162.33 125.913 1163.32 125.331C1164.31 124.747 1165.29 124.447 1166.2 124.569C1175.99 125.889 1183.19 130.215 1187.88 136.658H1124.73C1128.5 129.903 1133.85 125.603 1142.52 123.626C1142.88 123.543 1143.38 123.568 1144.01 123.714C1144.63 123.858 1145.34 124.112 1146.11 124.449C1147.64 125.123 1149.35 126.105 1150.96 127.124C1152.57 128.141 1154.06 129.185 1155.15 129.976C1155.69 130.372 1156.14 130.703 1156.45 130.935C1156.6 131.052 1156.72 131.143 1156.8 131.205L1156.89 131.276L1156.92 131.294L1156.92 131.298L1156.92 131.299L1156.92 131.3Z" fill="#F4D150" stroke="black"/>
<path d="M1139.86 123.891L1140.59 121.171C1140.8 120.392 1141.82 120.158 1142.43 120.678C1144.72 122.61 1147.23 123.102 1148.95 123.169C1149.8 123.202 1150.49 124.185 1150.09 124.938L1148.07 128.759C1147.87 129.141 1147.45 129.349 1147.03 129.24C1145.53 128.848 1142.01 127.649 1139.98 124.666C1139.83 124.439 1139.79 124.155 1139.86 123.891Z" fill="#FFEBA4" stroke="black"/>
<path d="M1169.78 123.787L1168.01 120.817C1167.62 120.155 1166.63 120.156 1166.09 120.708C1165.22 121.602 1164.2 122.195 1163.43 122.559C1162.83 122.838 1162.54 123.59 1162.88 124.157L1165.24 128.145C1165.44 128.486 1165.82 128.663 1166.18 128.488C1166.9 128.133 1168.21 127.207 1169.76 124.817C1169.96 124.506 1169.97 124.106 1169.78 123.787Z" fill="#FFEBA4" stroke="black"/>
<path d="M1152.95 128.242L1150.86 123.263L1149.24 126.737L1152.95 128.242Z" fill="black" stroke="black" stroke-linejoin="round"/>
<path d="M1160.24 128.011L1162.33 123.032L1163.95 126.505L1160.24 128.011Z" fill="black" stroke="black" stroke-linejoin="round"/>
<path d="M1143.92 118.863L1141.14 119.558L1143.45 121.063L1143.92 118.863Z" fill="black" stroke="black" stroke-linejoin="round"/>
<path d="M1164.64 118.863L1167.19 119.558L1165.57 121.063L1164.64 118.863Z" fill="black" stroke="black" stroke-linejoin="round"/>
</g>
<defs>
<clipPath id="clip0">
<rect width="46.3158" height="74.1053" fill="white" transform="translate(20.842 45.9579)"/>
</clipPath>
<clipPath id="clip1">
<rect width="46.3158" height="74.1053" fill="white" transform="translate(240.842 211.958)"/>
</clipPath>
<clipPath id="clip2">
<rect width="46.6108" height="74.1053" fill="white" transform="translate(616.975 337.958)"/>
</clipPath>
<clipPath id="clip3">
<rect width="46.3158" height="74.1053" fill="white" transform="translate(908.842 230.958)"/>
</clipPath>
<clipPath id="clip4">
<rect width="46.3158" height="74.1053" fill="white" transform="translate(1133.84 57.9579)"/>
</clipPath>
</defs>
</svg>
