<svg width="233" height="232" viewBox="0 0 233 232" fill="none" xmlns="http://www.w3.org/2000/svg">
<circle cx="116" cy="116" r="116" fill="#FAEFF6"/>
<path d="M212 6L214.673 23.8908L233 26.5L214.673 29.1092L212 47L209.327 29.1092L191 26.5L209.327 23.8908L212 6Z" fill="#BF3A91"/>
<path d="M203.5 59L204.964 69.4726L215 71L204.964 72.5274L203.5 83L202.036 72.5274L192 71L202.036 69.4726L203.5 59Z" fill="#BF3A91"/>
<path d="M221.5 47L222.327 53.109L228 54L222.327 54.891L221.5 61L220.673 54.891L215 54L220.673 53.109L221.5 47Z" fill="#BF3A91"/>
<path d="M173.5 25L175.727 38.9635L191 41L175.727 43.0365L173.5 57L171.273 43.0365L156 41L171.273 38.9635L173.5 25Z" fill="#BF3A91"/>
<path d="M100.5 121.167V136.667H131.5V121.167H167.667V157.333C167.667 158.704 167.122 160.018 166.154 160.987C165.185 161.956 163.87 162.5 162.5 162.5H69.5002C68.1299 162.5 66.8157 161.956 65.8468 160.987C64.8778 160.018 64.3335 158.704 64.3335 157.333V121.167H100.5ZM110.833 110.833H121.167V126.333H110.833V110.833ZM90.1668 79.8333V64.3333C90.1668 62.963 90.7112 61.6488 91.6801 60.6799C92.6491 59.711 93.9632 59.1666 95.3335 59.1666H136.667C138.037 59.1666 139.351 59.711 140.32 60.6799C141.289 61.6488 141.834 62.963 141.834 64.3333V79.8333H162.5C163.87 79.8333 165.185 80.3776 166.154 81.3466C167.122 82.3155 167.667 83.6297 167.667 85V110.833H131.5V100.5H100.5V110.833H64.3335V85C64.3335 83.6297 64.8778 82.3155 65.8468 81.3466C66.8157 80.3776 68.1299 79.8333 69.5002 79.8333H90.1668ZM100.5 69.5V79.8333H131.5V69.5H100.5Z" fill="#BF3A91"/>
</svg>
